<?xml version="1.0" encoding="UTF-8"?>
<!DOCTYPE svg PUBLIC "-//W3C//DTD SVG 1.1//EN" "http://www.w3.org/Graphics/SVG/1.1/DTD/svg11.dtd">
<svg xmlns="http://www.w3.org/2000/svg" version="1.1" width="720px" height="720px" style="shape-rendering:geometricPrecision; text-rendering:geometricPrecision; image-rendering:optimizeQuality; fill-rule:evenodd; clip-rule:evenodd" xmlns:xlink="http://www.w3.org/1999/xlink">
<g><path style="opacity:0.998" fill="#2e2e31" d="M 268.5,302.5 C 268.631,301.761 268.464,301.094 268,300.5C 237.391,302.488 206.557,303.155 175.5,302.5C 174.5,302.5 173.5,302.5 172.5,302.5C 172.5,303.5 172.5,304.5 172.5,305.5C 165.372,310.087 163.538,316.421 167,324.5C 172.318,328.943 178.485,331.443 185.5,332C 199.141,333.864 212.807,335.531 226.5,337C 246.18,338.924 262.68,347.09 276,361.5C 276.667,362.5 276.667,363.5 276,364.5C 264.637,380.554 261.304,398.22 266,417.5C 268.127,425.922 271.961,433.422 277.5,440C 266.891,452.971 253.225,460.138 236.5,461.5C 189.33,461.832 142.33,461.499 95.5,460.5C 102.597,444.47 110.597,428.97 119.5,414C 153.833,413.667 188.167,413.333 222.5,413C 228.394,410.936 231.394,406.77 231.5,400.5C 231.316,393.816 227.982,389.649 221.5,388C 203.127,385.613 184.793,382.947 166.5,380C 126.965,372.468 108.465,348.635 111,308.5C 118.22,275.446 138.72,258.112 172.5,256.5C 212.998,255.335 253.665,255.169 294.5,256C 294.833,256.333 295.167,256.667 295.5,257C 286.348,272.147 277.348,287.314 268.5,302.5 Z"/></g>
<g><path style="opacity:0.758" fill="#1f1f21" d="M 172.5,256.5 C 212.501,256.333 252.501,256.5 292.5,257C 270.92,258.156 249.253,258.656 227.5,258.5C 206.5,258.333 185.5,258.167 164.5,258C 167.365,257.817 170.031,257.317 172.5,256.5 Z"/></g>
<g><path style="opacity:0.999" fill="#2e2d30" d="M 546.5,426.5 C 546.5,425.833 546.5,425.167 546.5,424.5C 513.516,424.153 480.516,423.153 447.5,421.5C 446.913,422.233 446.913,423.233 447.5,424.5C 439.185,414.571 430.852,404.571 422.5,394.5C 431.59,375.985 440.423,357.318 449,338.5C 449.667,337.5 449.667,336.5 449,335.5C 447.701,335.966 446.201,335.966 444.5,335.5C 434.773,336.139 425.44,335.472 416.5,333.5C 429.662,307.678 442.996,281.844 456.5,256C 479.5,255.333 502.5,255.333 525.5,256C 558.074,324.484 590.407,393.151 622.5,462C 614.158,463.154 605.658,463.654 597,463.5C 586.57,463.074 576.57,463.074 567,463.5C 565.112,463.204 563.278,462.704 561.5,462C 556.008,450.351 551.008,438.518 546.5,426.5 Z M 524.5,376.5 C 500.339,377.498 476.006,377.831 451.5,377.5C 464.191,352.271 477.357,327.271 491,302.5C 501.942,327.376 513.109,352.042 524.5,376.5 Z"/></g>
<g><path style="opacity:1" fill="#f86505" d="M 374.5,265.5 C 374.833,265.5 375.167,265.5 375.5,265.5C 376.045,267.593 376.878,269.593 378,271.5C 382.086,275.416 385.919,279.416 389.5,283.5C 392.02,292.987 393.02,302.654 392.5,312.5C 391.797,316.647 390.797,320.647 389.5,324.5C 387.926,325.984 386.593,327.651 385.5,329.5C 384.785,326.24 384.785,322.907 385.5,319.5C 386.5,319.5 387.5,319.5 388.5,319.5C 388.754,316.986 389.587,314.652 391,312.5C 391.667,308.5 391.667,304.5 391,300.5C 389.192,300.888 387.525,300.888 386,300.5C 385.773,295.722 384.606,291.222 382.5,287C 383.167,286 383.833,285 384.5,284C 382.473,282.121 380.14,280.954 377.5,280.5C 378.255,283.512 379.588,286.178 381.5,288.5C 380.167,288.5 378.833,288.5 377.5,288.5C 376.586,284.547 374.252,283.547 370.5,285.5C 368.448,285.384 367.115,284.384 366.5,282.5C 368.782,281.1 370.282,281.766 371,284.5C 372.883,283.347 373.716,281.681 373.5,279.5C 375.429,279.769 377.095,279.269 378.5,278C 378.034,276.701 378.034,275.201 378.5,273.5C 375.5,273.833 373.833,275.5 373.5,278.5C 371.516,278.617 369.85,277.95 368.5,276.5C 367.176,278.318 365.343,279.318 363,279.5C 353.341,278.602 343.841,277.268 334.5,275.5C 329.804,278.121 324.97,280.454 320,282.5C 319.922,284.657 319.755,286.657 319.5,288.5C 320.325,289.386 321.325,289.719 322.5,289.5C 322.5,290.833 322.5,292.167 322.5,293.5C 320.179,293.229 318.179,293.896 316.5,295.5C 314.681,293.872 313.347,291.872 312.5,289.5C 311.752,291.332 310.752,292.999 309.5,294.5C 307.704,295.141 306.204,296.141 305,297.5C 304.333,294.833 303.667,294.833 303,297.5C 302.667,297.167 302.333,296.833 302,296.5C 301.333,298.5 301.333,300.5 302,302.5C 303.471,303.381 304.304,304.714 304.5,306.5C 303.327,310.02 303.327,313.52 304.5,317C 303.244,318.479 302.244,320.145 301.5,322C 302.999,324.343 302.666,326.176 300.5,327.5C 299.167,327.167 297.833,326.833 296.5,326.5C 295.89,325.609 295.557,324.609 295.5,323.5C 292.386,312.673 291.719,301.673 293.5,290.5C 298.635,281.674 304.635,273.341 311.5,265.5C 315.88,264.783 319.546,262.783 322.5,259.5C 333.076,257.687 343.742,257.187 354.5,258C 361.485,259.903 368.151,262.403 374.5,265.5 Z M 345.5,294.5 C 349.742,295.741 352.742,298.408 354.5,302.5C 354.932,310.222 352.265,316.555 346.5,321.5C 344.83,321.751 343.33,322.418 342,323.5C 337.798,320.153 334.632,316.153 332.5,311.5C 332.118,306.638 332.784,301.972 334.5,297.5C 335.167,297.5 335.5,297.167 335.5,296.5C 338.763,295.518 342.097,294.851 345.5,294.5 Z"/></g>
<g><path style="opacity:0.988" fill="#e2884d" d="M 374.5,265.5 C 368.151,262.403 361.485,259.903 354.5,258C 343.742,257.187 333.076,257.687 322.5,259.5C 337.094,254.058 351.76,254.225 366.5,260C 369.621,261.306 372.287,263.14 374.5,265.5 Z"/></g>
<g><path style="opacity:1" fill="#de844c" d="M 322.5,259.5 C 319.546,262.783 315.88,264.783 311.5,265.5C 314.675,262.672 318.342,260.672 322.5,259.5 Z"/></g>
<g><path style="opacity:0.98" fill="#e37939" d="M 311.5,265.5 C 304.635,273.341 298.635,281.674 293.5,290.5C 294.64,284.551 297.14,279.218 301,274.5C 304.098,270.893 307.598,267.893 311.5,265.5 Z"/></g>
<g><path style="opacity:0.999" fill="#fb6203" d="M 385.5,329.5 C 383.13,331.573 381.797,334.24 381.5,337.5C 379.278,337.822 377.444,337.155 376,335.5C 374.587,338.364 373.087,341.03 371.5,343.5C 369.436,343.687 367.436,344.187 365.5,345C 364.385,347.707 363.052,350.207 361.5,352.5C 361.264,350.48 361.264,348.314 361.5,346C 360.207,345.51 358.873,345.343 357.5,345.5C 356.871,351.373 359.538,354.206 365.5,354C 364.167,354.667 364.167,355.333 365.5,356C 366.899,356.595 368.232,356.428 369.5,355.5C 372.076,356.883 371.742,357.717 368.5,358C 371.864,360.729 372.197,363.729 369.5,367C 372.167,366 374.833,365 377.5,364C 378.152,366.09 378.319,368.257 378,370.5C 379.861,371.764 381.861,372.764 384,373.5C 386.701,372.104 389.201,370.438 391.5,368.5C 392.641,370.421 392.808,372.421 392,374.5C 391.667,374.167 391.333,373.833 391,373.5C 390.667,376.5 389,378.167 386,378.5C 385.383,379.449 385.549,380.282 386.5,381C 387.833,381.667 389.167,381.667 390.5,381C 391.743,378.966 393.243,378.133 395,378.5C 395.635,377.034 396.469,375.7 397.5,374.5C 396.423,372.271 395.756,369.937 395.5,367.5C 399.5,367.5 403.5,367.5 407.5,367.5C 407.5,366.167 407.5,364.833 407.5,363.5C 409.635,363.147 410.968,363.98 411.5,366C 409.293,369.327 408.959,372.827 410.5,376.5C 408.98,378.662 407.98,380.995 407.5,383.5C 408.5,383.5 409.5,383.5 410.5,383.5C 410.246,386.014 409.413,388.348 408,390.5C 407.364,386.131 405.864,385.631 403.5,389C 403.784,390.956 403.784,393.123 403.5,395.5C 402.167,395.5 400.833,395.5 399.5,395.5C 399.432,390.619 399.098,385.952 398.5,381.5C 397.808,382.025 397.308,382.692 397,383.5C 396.667,383.167 396.333,382.833 396,382.5C 394.89,384.037 393.39,384.703 391.5,384.5C 391.335,387.518 391.502,390.518 392,393.5C 394.386,394.763 396.219,396.597 397.5,399C 398.793,399.49 400.127,399.657 401.5,399.5C 401.232,403.426 402.065,407.093 404,410.5C 408.666,412.667 412.166,416.001 414.5,420.5C 415.429,419.311 415.762,417.978 415.5,416.5C 417.167,416.5 418.833,416.5 420.5,416.5C 420.45,414.41 421.45,413.077 423.5,412.5C 423.36,413.569 423.36,414.736 423.5,416C 420.399,417.598 417.732,419.765 415.5,422.5C 417.664,423.414 419.664,424.581 421.5,426C 419.335,427.564 417.668,427.397 416.5,425.5C 415.369,427.074 415.202,428.741 416,430.5C 417,430.833 418,431.167 419,431.5C 421.003,429.199 422.837,429.199 424.5,431.5C 426.515,427.403 429.181,426.737 432.5,429.5C 431.619,430.971 430.286,431.804 428.5,432C 429.563,433.188 430.897,433.688 432.5,433.5C 432.331,438.041 432.998,438.374 434.5,434.5C 436.167,435.333 437.833,436.167 439.5,437C 441.221,439.619 443.054,442.119 445,444.5C 446.225,444.138 447.391,443.638 448.5,443C 449.833,442.333 449.833,441.667 448.5,441C 452.506,441.767 452.506,443.101 448.5,445C 450.305,445.972 451.972,447.139 453.5,448.5C 453.348,450.9 453.848,453.234 455,455.5C 456.682,454.135 456.849,452.635 455.5,451C 456.244,449.961 457.244,449.461 458.5,449.5C 460.833,451.167 462.833,453.167 464.5,455.5C 464.859,457.371 465.859,458.871 467.5,460C 449.5,460.667 431.5,460.667 413.5,460C 411.854,458.179 409.854,457.013 407.5,456.5C 407.229,454.688 406.562,453.022 405.5,451.5C 399.86,445.855 394.527,439.855 389.5,433.5C 388.253,431.677 387.586,429.677 387.5,427.5C 384.646,426.974 381.979,425.974 379.5,424.5C 379.682,421.378 378.682,418.711 376.5,416.5C 377.909,411.714 377.242,411.38 374.5,415.5C 372.693,412.36 370.026,410.36 366.5,409.5C 366.454,406.908 365.454,404.741 363.5,403C 363.735,402.127 364.069,401.293 364.5,400.5C 360.879,400.259 358.212,398.593 356.5,395.5C 355.583,394.873 354.583,394.539 353.5,394.5C 352.617,392.09 351.45,389.757 350,387.5C 348.67,386.418 347.17,385.751 345.5,385.5C 344.178,382.83 343.178,379.997 342.5,377C 342.585,375.893 342.919,374.893 343.5,374C 342.167,374.667 340.833,375.333 339.5,376C 338.167,375 338.167,374 339.5,373C 336.099,373.266 334.433,371.766 334.5,368.5C 331.99,368.054 329.99,368.72 328.5,370.5C 324.788,372.915 320.788,374.749 316.5,376C 317.598,376.77 317.598,377.603 316.5,378.5C 313.637,380.445 310.637,380.779 307.5,379.5C 307.663,381.857 307.497,384.19 307,386.5C 306.586,386.957 306.086,387.291 305.5,387.5C 304.719,386.271 304.219,384.938 304,383.5C 301.379,383.704 298.545,383.704 295.5,383.5C 295.335,386.518 295.502,389.518 296,392.5C 297.328,390.505 298.995,388.839 301,387.5C 302.395,387.78 303.562,388.447 304.5,389.5C 303.907,391.382 303.24,393.215 302.5,395C 303.692,396.945 303.692,398.945 302.5,401C 303.029,402.559 303.696,404.059 304.5,405.5C 301.284,406.996 298.284,408.663 295.5,410.5C 295.5,412.167 295.5,413.833 295.5,415.5C 296.5,415.5 297.5,415.5 298.5,415.5C 298.458,417.849 299.625,419.182 302,419.5C 302.609,417.457 304.109,415.457 306.5,413.5C 306.833,414 307.167,414.5 307.5,415C 306.476,417.569 305.143,420.402 303.5,423.5C 304.786,425.626 305.619,427.959 306,430.5C 308.473,431.12 310.973,431.786 313.5,432.5C 315.5,434.5 317.5,436.5 319.5,438.5C 332.83,439.333 346.164,440 359.5,440.5C 360.201,438.092 361.201,435.758 362.5,433.5C 363.519,434.687 364.686,435.687 366,436.5C 369.137,433.522 371.637,434.022 373.5,438C 372.5,439.5 371.5,441 370.5,442.5C 369.137,441.121 368.137,441.287 367.5,443C 368.776,445.281 370.443,447.281 372.5,449C 371.058,449.377 370.058,450.21 369.5,451.5C 368.448,451.351 367.448,451.517 366.5,452C 367.337,453.011 367.67,454.178 367.5,455.5C 364.966,455.259 363.3,456.259 362.5,458.5C 357.508,458.314 352.841,459.314 348.5,461.5C 334.583,461.647 320.917,460.314 307.5,457.5C 306.191,454.549 303.857,453.216 300.5,453.5C 299.763,451.695 298.763,450.029 297.5,448.5C 300.133,447.116 300.133,445.782 297.5,444.5C 296.5,445.167 295.5,445.833 294.5,446.5C 292.343,444.588 290.009,442.921 287.5,441.5C 286.754,440.264 286.421,438.93 286.5,437.5C 285.167,437.5 283.833,437.5 282.5,437.5C 281.571,433.873 280.737,430.207 280,426.5C 278.989,425.663 277.822,425.33 276.5,425.5C 270.199,408.314 269.865,390.981 275.5,373.5C 278.388,371.168 280.388,368.168 281.5,364.5C 286.446,360.221 291.113,355.554 295.5,350.5C 298.358,346.99 302.024,344.657 306.5,343.5C 307.5,343.5 308.5,343.5 309.5,343.5C 307.491,339.152 304.824,335.152 301.5,331.5C 300.754,330.264 300.421,328.93 300.5,327.5C 302.666,326.176 302.999,324.343 301.5,322C 302.244,320.145 303.244,318.479 304.5,317C 303.327,313.52 303.327,310.02 304.5,306.5C 304.304,304.714 303.471,303.381 302,302.5C 301.333,300.5 301.333,298.5 302,296.5C 302.333,296.833 302.667,297.167 303,297.5C 303.667,294.833 304.333,294.833 305,297.5C 306.204,296.141 307.704,295.141 309.5,294.5C 310.752,292.999 311.752,291.332 312.5,289.5C 313.347,291.872 314.681,293.872 316.5,295.5C 318.179,293.896 320.179,293.229 322.5,293.5C 322.5,292.167 322.5,290.833 322.5,289.5C 321.325,289.719 320.325,289.386 319.5,288.5C 319.755,286.657 319.922,284.657 320,282.5C 324.97,280.454 329.804,278.121 334.5,275.5C 343.841,277.268 353.341,278.602 363,279.5C 365.343,279.318 367.176,278.318 368.5,276.5C 369.85,277.95 371.516,278.617 373.5,278.5C 373.833,275.5 375.5,273.833 378.5,273.5C 378.034,275.201 378.034,276.701 378.5,278C 377.095,279.269 375.429,279.769 373.5,279.5C 373.716,281.681 372.883,283.347 371,284.5C 370.282,281.766 368.782,281.1 366.5,282.5C 367.115,284.384 368.448,285.384 370.5,285.5C 374.252,283.547 376.586,284.547 377.5,288.5C 378.833,288.5 380.167,288.5 381.5,288.5C 379.588,286.178 378.255,283.512 377.5,280.5C 380.14,280.954 382.473,282.121 384.5,284C 383.833,285 383.167,286 382.5,287C 384.606,291.222 385.773,295.722 386,300.5C 387.525,300.888 389.192,300.888 391,300.5C 391.667,304.5 391.667,308.5 391,312.5C 389.587,314.652 388.754,316.986 388.5,319.5C 387.5,319.5 386.5,319.5 385.5,319.5C 384.785,322.907 384.785,326.24 385.5,329.5 Z M 345.5,294.5 C 349.742,295.741 352.742,298.408 354.5,302.5C 354.932,310.222 352.265,316.555 346.5,321.5C 344.83,321.751 343.33,322.418 342,323.5C 337.798,320.153 334.632,316.153 332.5,311.5C 332.118,306.638 332.784,301.972 334.5,297.5C 335.167,297.5 335.5,297.167 335.5,296.5C 338.763,295.518 342.097,294.851 345.5,294.5 Z"/></g>
<g><path style="opacity:0.988" fill="#e47a3e" d="M 375.5,265.5 C 382.071,270.065 386.737,276.065 389.5,283.5C 385.919,279.416 382.086,275.416 378,271.5C 376.878,269.593 376.045,267.593 375.5,265.5 Z"/></g>
<g><path style="opacity:0.161" fill="#efad78" d="M 345.5,294.5 C 342.097,294.851 338.763,295.518 335.5,296.5C 336.23,294.955 337.563,294.122 339.5,294C 341.712,293.211 343.712,293.378 345.5,294.5 Z"/></g>
<g><path style="opacity:0.969" fill="#e8814f" d="M 345.5,294.5 C 351.475,293.764 354.475,296.431 354.5,302.5C 352.742,298.408 349.742,295.741 345.5,294.5 Z"/></g>
<g><path style="opacity:0.822" fill="#de7a3b" d="M 389.5,283.5 C 391.89,286.689 393.223,290.356 393.5,294.5C 393.823,300.69 393.49,306.69 392.5,312.5C 393.02,302.654 392.02,292.987 389.5,283.5 Z"/></g>
<g><path style="opacity:1" fill="#101013" d="M 268.5,302.5 C 268.5,302.833 268.5,303.167 268.5,303.5C 237.329,303.831 206.329,303.498 175.5,302.5C 206.557,303.155 237.391,302.488 268,300.5C 268.464,301.094 268.631,301.761 268.5,302.5 Z"/></g>
<g><path style="opacity:0.451" fill="#565458" d="M 175.5,302.5 C 206.329,303.498 237.329,303.831 268.5,303.5C 236.64,304.188 204.64,304.855 172.5,305.5C 172.5,304.5 172.5,303.5 172.5,302.5C 173.5,302.5 174.5,302.5 175.5,302.5 Z"/></g>
<g><path style="opacity:0.016" fill="#ffd0b6" d="M 334.5,297.5 C 332.784,301.972 332.118,306.638 332.5,311.5C 331.523,308.713 331.19,305.713 331.5,302.5C 331.75,300.326 332.75,298.659 334.5,297.5 Z"/></g>
<g><path style="opacity:0.576" fill="#e9965f" d="M 354.5,302.5 C 357.063,310.998 354.396,317.331 346.5,321.5C 352.265,316.555 354.932,310.222 354.5,302.5 Z"/></g>
<g><path style="opacity:0.239" fill="#f6b38b" d="M 293.5,290.5 C 291.719,301.673 292.386,312.673 295.5,323.5C 289.859,312.765 289.192,301.765 293.5,290.5 Z"/></g>
<g><path style="opacity:0.145" fill="#f6b992" d="M 393.5,294.5 C 394.653,300.653 394.82,306.986 394,313.5C 393.245,317.58 391.745,321.246 389.5,324.5C 390.797,320.647 391.797,316.647 392.5,312.5C 393.49,306.69 393.823,300.69 393.5,294.5 Z"/></g>
<g><path style="opacity:0.988" fill="#e67d3b" d="M 331.5,302.5 C 331.19,305.713 331.523,308.713 332.5,311.5C 334.632,316.153 337.798,320.153 342,323.5C 343.33,322.418 344.83,321.751 346.5,321.5C 345.481,323.525 343.815,324.859 341.5,325.5C 332.372,320.253 329.039,312.586 331.5,302.5 Z"/></g>
<g><path style="opacity:1" fill="#ea8950" d="M 296.5,326.5 C 297.833,326.833 299.167,327.167 300.5,327.5C 300.421,328.93 300.754,330.264 301.5,331.5C 304.824,335.152 307.491,339.152 309.5,343.5C 308.5,343.5 307.5,343.5 306.5,343.5C 306.611,342.883 306.944,342.383 307.5,342C 303.614,336.954 299.947,331.787 296.5,326.5 Z"/></g>
<g><path style="opacity:0.988" fill="#e99560" d="M 389.5,324.5 C 387.618,329.368 384.952,333.701 381.5,337.5C 381.797,334.24 383.13,331.573 385.5,329.5C 386.593,327.651 387.926,325.984 389.5,324.5 Z"/></g>
<g><path style="opacity:0.004" fill="#f9f9f6" d="M 416.5,333.5 C 425.44,335.472 434.773,336.139 444.5,335.5C 435.014,336.494 425.348,336.827 415.5,336.5C 415.263,335.209 415.596,334.209 416.5,333.5 Z"/></g>
<g><path style="opacity:0.004" fill="#ffd7c4" d="M 375.5,343.5 C 375.027,344.906 374.027,345.573 372.5,345.5C 372.973,344.094 373.973,343.427 375.5,343.5 Z"/></g>
<g><path style="opacity:0.365" fill="#da9969" d="M 436.5,348.5 C 436.5,347.5 436.5,346.5 436.5,345.5C 419.5,345.5 402.5,345.5 385.5,345.5C 386.134,344.053 387.301,343.387 389,343.5C 404.171,344.825 419.337,344.825 434.5,343.5C 439.113,343.814 439.779,345.481 436.5,348.5 Z"/></g>
<g><path style="opacity:1" fill="#dd7029" d="M 385.5,345.5 C 402.5,345.5 419.5,345.5 436.5,345.5C 436.5,346.5 436.5,347.5 436.5,348.5C 435.07,352.354 433.403,356.021 431.5,359.5C 431.615,354.921 432.615,350.587 434.5,346.5C 418.5,346.5 402.5,346.5 386.5,346.5C 386.5,349.833 386.5,353.167 386.5,356.5C 385.518,353.038 385.185,349.371 385.5,345.5 Z"/></g>
<g><path style="opacity:0.998" fill="#fa6506" d="M 381.5,337.5 C 379.833,339.833 377.833,341.833 375.5,343.5C 373.973,343.427 372.973,344.094 372.5,345.5C 367.673,344.848 365.84,346.848 367,351.5C 369.663,353.334 372.163,355.334 374.5,357.5C 376.094,360.764 378.427,363.431 381.5,365.5C 382.5,365.833 383.167,366.5 383.5,367.5C 383.783,368.289 384.283,368.956 385,369.5C 385.923,365.21 386.423,360.877 386.5,356.5C 386.5,353.167 386.5,349.833 386.5,346.5C 402.5,346.5 418.5,346.5 434.5,346.5C 432.615,350.587 431.615,354.921 431.5,359.5C 428.871,361.381 427.537,364.047 427.5,367.5C 427.737,368.791 427.404,369.791 426.5,370.5C 422.597,374.306 420.264,378.973 419.5,384.5C 416.937,386.612 415.104,389.279 414,392.5C 412.795,393.071 411.628,393.738 410.5,394.5C 414.628,400.075 419.628,404.742 425.5,408.5C 427.914,409.911 429.581,411.911 430.5,414.5C 432.094,417.764 434.427,420.431 437.5,422.5C 439.914,423.911 441.581,425.911 442.5,428.5C 443.75,432.086 446.084,434.752 449.5,436.5C 451.482,440.146 454.149,443.146 457.5,445.5C 457.833,446.833 458.167,448.167 458.5,449.5C 457.244,449.461 456.244,449.961 455.5,451C 456.849,452.635 456.682,454.135 455,455.5C 453.848,453.234 453.348,450.9 453.5,448.5C 451.972,447.139 450.305,445.972 448.5,445C 452.506,443.101 452.506,441.767 448.5,441C 449.833,441.667 449.833,442.333 448.5,443C 447.391,443.638 446.225,444.138 445,444.5C 443.054,442.119 441.221,439.619 439.5,437C 437.833,436.167 436.167,435.333 434.5,434.5C 432.998,438.374 432.331,438.041 432.5,433.5C 430.897,433.688 429.563,433.188 428.5,432C 430.286,431.804 431.619,430.971 432.5,429.5C 429.181,426.737 426.515,427.403 424.5,431.5C 422.837,429.199 421.003,429.199 419,431.5C 418,431.167 417,430.833 416,430.5C 415.202,428.741 415.369,427.074 416.5,425.5C 417.668,427.397 419.335,427.564 421.5,426C 419.664,424.581 417.664,423.414 415.5,422.5C 417.732,419.765 420.399,417.598 423.5,416C 423.36,414.736 423.36,413.569 423.5,412.5C 421.45,413.077 420.45,414.41 420.5,416.5C 418.833,416.5 417.167,416.5 415.5,416.5C 415.762,417.978 415.429,419.311 414.5,420.5C 412.166,416.001 408.666,412.667 404,410.5C 402.065,407.093 401.232,403.426 401.5,399.5C 400.127,399.657 398.793,399.49 397.5,399C 396.219,396.597 394.386,394.763 392,393.5C 391.502,390.518 391.335,387.518 391.5,384.5C 393.39,384.703 394.89,384.037 396,382.5C 396.333,382.833 396.667,383.167 397,383.5C 397.308,382.692 397.808,382.025 398.5,381.5C 399.098,385.952 399.432,390.619 399.5,395.5C 400.833,395.5 402.167,395.5 403.5,395.5C 403.784,393.123 403.784,390.956 403.5,389C 405.864,385.631 407.364,386.131 408,390.5C 409.413,388.348 410.246,386.014 410.5,383.5C 409.5,383.5 408.5,383.5 407.5,383.5C 407.98,380.995 408.98,378.662 410.5,376.5C 408.959,372.827 409.293,369.327 411.5,366C 410.968,363.98 409.635,363.147 407.5,363.5C 407.5,364.833 407.5,366.167 407.5,367.5C 403.5,367.5 399.5,367.5 395.5,367.5C 395.756,369.937 396.423,372.271 397.5,374.5C 396.469,375.7 395.635,377.034 395,378.5C 393.243,378.133 391.743,378.966 390.5,381C 389.167,381.667 387.833,381.667 386.5,381C 385.549,380.282 385.383,379.449 386,378.5C 389,378.167 390.667,376.5 391,373.5C 391.333,373.833 391.667,374.167 392,374.5C 392.808,372.421 392.641,370.421 391.5,368.5C 389.201,370.438 386.701,372.104 384,373.5C 381.861,372.764 379.861,371.764 378,370.5C 378.319,368.257 378.152,366.09 377.5,364C 374.833,365 372.167,366 369.5,367C 372.197,363.729 371.864,360.729 368.5,358C 371.742,357.717 372.076,356.883 369.5,355.5C 368.232,356.428 366.899,356.595 365.5,356C 364.167,355.333 364.167,354.667 365.5,354C 359.538,354.206 356.871,351.373 357.5,345.5C 358.873,345.343 360.207,345.51 361.5,346C 361.264,348.314 361.264,350.48 361.5,352.5C 363.052,350.207 364.385,347.707 365.5,345C 367.436,344.187 369.436,343.687 371.5,343.5C 373.087,341.03 374.587,338.364 376,335.5C 377.444,337.155 379.278,337.822 381.5,337.5 Z"/></g>
<g><path style="opacity:0.847" fill="#e88046" d="M 372.5,345.5 C 371.2,346.827 369.867,348.16 368.5,349.5C 370.934,351.921 372.934,354.588 374.5,357.5C 372.163,355.334 369.663,353.334 367,351.5C 365.84,346.848 367.673,344.848 372.5,345.5 Z"/></g>
<g><path style="opacity:0.875" fill="#d4783b" d="M 295.5,350.5 C 291.113,355.554 286.446,360.221 281.5,364.5C 285.167,358.833 289.833,354.167 295.5,350.5 Z"/></g>
<g><path style="opacity:0.714" fill="#e69e66" d="M 374.5,357.5 C 377.573,359.569 379.906,362.236 381.5,365.5C 378.427,363.431 376.094,360.764 374.5,357.5 Z"/></g>
<g><path style="opacity:0.58" fill="#f8c181" d="M 385.5,345.5 C 385.185,349.371 385.518,353.038 386.5,356.5C 386.423,360.877 385.923,365.21 385,369.5C 384.283,368.956 383.783,368.289 383.5,367.5C 384.167,360.167 384.833,352.833 385.5,345.5 Z"/></g>
<g><path style="opacity:0.839" fill="#eea472" d="M 431.5,359.5 C 430.721,362.545 429.387,365.211 427.5,367.5C 427.537,364.047 428.871,361.381 431.5,359.5 Z"/></g>
<g><path style="opacity:1" fill="#e1814a" d="M 281.5,364.5 C 280.388,368.168 278.388,371.168 275.5,373.5C 276.723,369.951 278.723,366.951 281.5,364.5 Z"/></g>
<g><path style="opacity:0.994" fill="#ea6d27" d="M 345.5,385.5 C 343.833,384.5 342.5,383.167 341.5,381.5C 341.512,378.858 340.179,377.525 337.5,377.5C 335.5,374.833 333.167,372.5 330.5,370.5C 329.833,370.5 329.167,370.5 328.5,370.5C 329.99,368.72 331.99,368.054 334.5,368.5C 334.433,371.766 336.099,373.266 339.5,373C 338.167,374 338.167,375 339.5,376C 340.833,375.333 342.167,374.667 343.5,374C 342.919,374.893 342.585,375.893 342.5,377C 343.178,379.997 344.178,382.83 345.5,385.5 Z"/></g>
<g><path style="opacity:0.039" fill="#b4b3b4" d="M 524.5,376.5 C 525.043,376.56 525.376,376.893 525.5,377.5C 513,377.833 500.5,378.167 488,378.5C 475.093,378.51 462.926,378.176 451.5,377.5C 476.006,377.831 500.339,377.498 524.5,376.5 Z"/></g>
<g><path style="opacity:0.929" fill="#ee9860" d="M 328.5,370.5 C 329.167,370.5 329.833,370.5 330.5,370.5C 324.589,373.742 319.589,378.075 315.5,383.5C 316.038,381.883 316.371,380.216 316.5,378.5C 317.598,377.603 317.598,376.77 316.5,376C 320.788,374.749 324.788,372.915 328.5,370.5 Z"/></g>
<g><path style="opacity:0.941" fill="#e5996b" d="M 337.5,377.5 C 340.179,377.525 341.512,378.858 341.5,381.5C 339.833,380.5 338.5,379.167 337.5,377.5 Z"/></g>
<g><path style="opacity:0.165" fill="#f3b280" d="M 426.5,370.5 C 424.674,375.484 422.341,380.151 419.5,384.5C 420.264,378.973 422.597,374.306 426.5,370.5 Z"/></g>
<g><path style="opacity:1" fill="#e27a45" d="M 345.5,385.5 C 347.17,385.751 348.67,386.418 350,387.5C 351.45,389.757 352.617,392.09 353.5,394.5C 350.119,392.12 347.453,389.12 345.5,385.5 Z"/></g>
<g><path style="opacity:0.082" fill="#fbcfab" d="M 417.5,389.5 C 416.735,392.096 416.401,394.763 416.5,397.5C 414.201,394.662 414.534,391.996 417.5,389.5 Z"/></g>
<g><path style="opacity:0.529" fill="#e67a3a" d="M 315.5,383.5 C 314.499,386.172 313.499,388.838 312.5,391.5C 311.249,396.369 311.249,401.369 312.5,406.5C 311.186,404.085 310.519,401.252 310.5,398C 310.207,393.265 311.04,388.765 313,384.5C 313.671,383.748 314.504,383.414 315.5,383.5 Z"/></g>
<g><path style="opacity:0.059" fill="#fac6a5" d="M 271.5,383.5 C 268.671,395.571 269.004,407.571 272.5,419.5C 269.335,413.512 268.002,407.012 268.5,400C 268.083,394.109 269.083,388.609 271.5,383.5 Z"/></g>
<g><path style="opacity:0.988" fill="#e87232" d="M 353.5,394.5 C 354.583,394.539 355.583,394.873 356.5,395.5C 358.212,398.593 360.879,400.259 364.5,400.5C 364.069,401.293 363.735,402.127 363.5,403C 365.454,404.741 366.454,406.908 366.5,409.5C 361.822,404.821 357.489,399.821 353.5,394.5 Z"/></g>
<g><path style="opacity:0.075" fill="#f9c69b" d="M 312.5,391.5 C 312.123,397.323 312.79,402.989 314.5,408.5C 313.5,408.167 312.833,407.5 312.5,406.5C 311.249,401.369 311.249,396.369 312.5,391.5 Z"/></g>
<g><path style="opacity:1" fill="#ea7836" d="M 419.5,384.5 C 419.598,386.553 418.931,388.22 417.5,389.5C 414.534,391.996 414.201,394.662 416.5,397.5C 419.871,400.871 422.871,404.537 425.5,408.5C 419.628,404.742 414.628,400.075 410.5,394.5C 411.628,393.738 412.795,393.071 414,392.5C 415.104,389.279 416.937,386.612 419.5,384.5 Z"/></g>
<g><path style="opacity:0.796" fill="#ec9e76" d="M 314.5,408.5 C 315.793,410.808 317.126,413.142 318.5,415.5C 315.482,414.145 314.149,411.812 314.5,408.5 Z"/></g>
<g><path style="opacity:0.988" fill="#ed7234" d="M 366.5,409.5 C 370.026,410.36 372.693,412.36 374.5,415.5C 377.242,411.38 377.909,411.714 376.5,416.5C 378.682,418.711 379.682,421.378 379.5,424.5C 374.822,419.821 370.489,414.821 366.5,409.5 Z"/></g>
<g><path style="opacity:0.91" fill="#1e1d20" d="M 223.5,413.5 C 225.379,413.393 225.712,413.893 224.5,415C 222.5,415.333 220.5,415.667 218.5,416C 185.167,416.667 151.833,416.667 118.5,416C 153.643,414.889 188.643,414.056 223.5,413.5 Z"/></g>
<g><path style="opacity:0.847" fill="#e89663" d="M 430.5,414.5 C 433.573,416.569 435.906,419.236 437.5,422.5C 434.427,420.431 432.094,417.764 430.5,414.5 Z"/></g>
<g><path style="opacity:0.878" fill="#0f0e11" d="M 546.5,424.5 C 513.5,424.5 480.5,424.5 447.5,424.5C 446.913,423.233 446.913,422.233 447.5,421.5C 480.516,423.153 513.516,424.153 546.5,424.5 Z"/></g>
<g><path style="opacity:0.999" fill="#f96504" d="M 316.5,378.5 C 316.371,380.216 316.038,381.883 315.5,383.5C 314.504,383.414 313.671,383.748 313,384.5C 311.04,388.765 310.207,393.265 310.5,398C 310.519,401.252 311.186,404.085 312.5,406.5C 312.833,407.5 313.5,408.167 314.5,408.5C 314.149,411.812 315.482,414.145 318.5,415.5C 318.5,416.833 318.5,418.167 318.5,419.5C 321.492,421.283 324.659,422.95 328,424.5C 335.147,425.536 342.313,425.703 349.5,425C 354.098,422.878 358.765,421.044 363.5,419.5C 364.626,422.141 365.959,424.807 367.5,427.5C 370.195,428.882 372.861,430.216 375.5,431.5C 375.427,433.027 376.094,434.027 377.5,434.5C 378.373,436.886 379.873,438.886 382,440.5C 382.494,442.134 382.66,443.801 382.5,445.5C 381.71,446.401 380.71,447.068 379.5,447.5C 376.7,447.111 374.033,446.611 371.5,446C 373.192,447.401 373.859,449.234 373.5,451.5C 372.167,451.5 370.833,451.5 369.5,451.5C 370.058,450.21 371.058,449.377 372.5,449C 370.443,447.281 368.776,445.281 367.5,443C 368.137,441.287 369.137,441.121 370.5,442.5C 371.5,441 372.5,439.5 373.5,438C 371.637,434.022 369.137,433.522 366,436.5C 364.686,435.687 363.519,434.687 362.5,433.5C 361.201,435.758 360.201,438.092 359.5,440.5C 346.164,440 332.83,439.333 319.5,438.5C 317.5,436.5 315.5,434.5 313.5,432.5C 310.973,431.786 308.473,431.12 306,430.5C 305.619,427.959 304.786,425.626 303.5,423.5C 305.143,420.402 306.476,417.569 307.5,415C 307.167,414.5 306.833,414 306.5,413.5C 304.109,415.457 302.609,417.457 302,419.5C 299.625,419.182 298.458,417.849 298.5,415.5C 297.5,415.5 296.5,415.5 295.5,415.5C 295.5,413.833 295.5,412.167 295.5,410.5C 298.284,408.663 301.284,406.996 304.5,405.5C 303.696,404.059 303.029,402.559 302.5,401C 303.692,398.945 303.692,396.945 302.5,395C 303.24,393.215 303.907,391.382 304.5,389.5C 303.562,388.447 302.395,387.78 301,387.5C 298.995,388.839 297.328,390.505 296,392.5C 295.502,389.518 295.335,386.518 295.5,383.5C 298.545,383.704 301.379,383.704 304,383.5C 304.219,384.938 304.719,386.271 305.5,387.5C 306.086,387.291 306.586,386.957 307,386.5C 307.497,384.19 307.663,381.857 307.5,379.5C 310.637,380.779 313.637,380.445 316.5,378.5 Z"/></g>
<g><path style="opacity:0.133" fill="#939294" d="M 447.5,424.5 C 480.5,424.5 513.5,424.5 546.5,424.5C 546.5,425.167 546.5,425.833 546.5,426.5C 513.402,425.84 480.402,425.173 447.5,424.5 Z"/></g>
<g><path style="opacity:0.986" fill="#e57730" d="M 318.5,415.5 C 321.135,416.811 323.469,418.478 325.5,420.5C 327.269,422.397 329.602,423.564 332.5,424C 337.02,424.814 341.354,424.647 345.5,423.5C 351.32,422.18 356.82,419.847 362,416.5C 367.054,421.052 371.554,426.052 375.5,431.5C 372.861,430.216 370.195,428.882 367.5,427.5C 365.959,424.807 364.626,422.141 363.5,419.5C 358.765,421.044 354.098,422.878 349.5,425C 342.313,425.703 335.147,425.536 328,424.5C 324.659,422.95 321.492,421.283 318.5,419.5C 318.5,418.167 318.5,416.833 318.5,415.5 Z"/></g>
<g><path style="opacity:0.354" fill="#ed9e6a" d="M 325.5,420.5 C 331.929,422.934 338.596,423.934 345.5,423.5C 341.354,424.647 337.02,424.814 332.5,424C 329.602,423.564 327.269,422.397 325.5,420.5 Z"/></g>
<g><path style="opacity:0.988" fill="#ec6c29" d="M 275.5,373.5 C 269.865,390.981 270.199,408.314 276.5,425.5C 277.822,425.33 278.989,425.663 280,426.5C 280.737,430.207 281.571,433.873 282.5,437.5C 279.479,434.634 276.979,431.3 275,427.5C 273.659,424.978 272.826,422.311 272.5,419.5C 269.004,407.571 268.671,395.571 271.5,383.5C 271.872,379.703 273.206,376.37 275.5,373.5 Z"/></g>
<g><path style="opacity:0.988" fill="#e5783b" d="M 379.5,424.5 C 381.979,425.974 384.646,426.974 387.5,427.5C 387.586,429.677 388.253,431.677 389.5,433.5C 394.527,439.855 399.86,445.855 405.5,451.5C 406.562,453.022 407.229,454.688 407.5,456.5C 397.823,446.155 388.49,435.488 379.5,424.5 Z"/></g>
<g><path style="opacity:0.31" fill="#f6c294" d="M 375.5,431.5 C 376.906,431.973 377.573,432.973 377.5,434.5C 376.094,434.027 375.427,433.027 375.5,431.5 Z"/></g>
<g><path style="opacity:1" fill="#dd854b" d="M 442.5,428.5 C 445.573,430.569 447.906,433.236 449.5,436.5C 446.084,434.752 443.75,432.086 442.5,428.5 Z"/></g>
<g><path style="opacity:0.78" fill="#e6945e" d="M 449.5,436.5 C 452.881,438.88 455.547,441.88 457.5,445.5C 454.149,443.146 451.482,440.146 449.5,436.5 Z"/></g>
<g><path style="opacity:0.392" fill="#eca178" d="M 377.5,434.5 C 380.527,436.529 382.86,439.196 384.5,442.5C 384.058,443.739 383.391,444.739 382.5,445.5C 382.66,443.801 382.494,442.134 382,440.5C 379.873,438.886 378.373,436.886 377.5,434.5 Z"/></g>
<g><path style="opacity:0.988" fill="#eb7435" d="M 282.5,437.5 C 283.833,437.5 285.167,437.5 286.5,437.5C 286.421,438.93 286.754,440.264 287.5,441.5C 290.009,442.921 292.343,444.588 294.5,446.5C 295.5,445.833 296.5,445.167 297.5,444.5C 300.133,445.782 300.133,447.116 297.5,448.5C 298.763,450.029 299.763,451.695 300.5,453.5C 292.936,449.937 286.936,444.604 282.5,437.5 Z"/></g>
<g><path style="opacity:0.988" fill="#e4864b" d="M 457.5,445.5 C 461.536,449.534 465.202,453.868 468.5,458.5C 467.167,457.5 465.833,456.5 464.5,455.5C 462.833,453.167 460.833,451.167 458.5,449.5C 458.167,448.167 457.833,446.833 457.5,445.5 Z"/></g>
<g><path style="opacity:0.988" fill="#ed8245" d="M 379.5,447.5 C 374.989,452.924 369.322,456.591 362.5,458.5C 363.3,456.259 364.966,455.259 367.5,455.5C 367.67,454.178 367.337,453.011 366.5,452C 367.448,451.517 368.448,451.351 369.5,451.5C 370.833,451.5 372.167,451.5 373.5,451.5C 373.859,449.234 373.192,447.401 371.5,446C 374.033,446.611 376.7,447.111 379.5,447.5 Z"/></g>
<g><path style="opacity:0.902" fill="#e58955" d="M 300.5,453.5 C 303.857,453.216 306.191,454.549 307.5,457.5C 304.669,456.921 302.336,455.588 300.5,453.5 Z"/></g>
<g><path style="opacity:0.988" fill="#2c2b2d" d="M 401.5,460.5 C 392.348,461.494 383.015,461.827 373.5,461.5C 378.447,456.564 383.78,451.897 389.5,447.5C 393.731,451.634 397.731,455.967 401.5,460.5 Z"/></g>
<g><path style="opacity:0.333" fill="#f9bf91" d="M 312.5,459.5 C 316.162,459.723 319.495,460.723 322.5,462.5C 318.838,462.277 315.505,461.277 312.5,459.5 Z"/></g>
<g><path style="opacity:0.951" fill="#e06217" d="M 464.5,455.5 C 465.833,456.5 467.167,457.5 468.5,458.5C 468.414,459.496 468.748,460.329 469.5,461C 449.79,461.809 430.123,461.642 410.5,460.5C 409.5,459.167 408.5,457.833 407.5,456.5C 409.854,457.013 411.854,458.179 413.5,460C 431.5,460.667 449.5,460.667 467.5,460C 465.859,458.871 464.859,457.371 464.5,455.5 Z"/></g>
<g><path style="opacity:0.484" fill="#515153" d="M 95.5,460.5 C 142.33,461.499 189.33,461.832 236.5,461.5C 189.332,462.831 141.998,462.831 94.5,461.5C 94.6236,460.893 94.9569,460.56 95.5,460.5 Z"/></g>
<g><path style="opacity:1" fill="#e26a26" d="M 307.5,457.5 C 320.917,460.314 334.583,461.647 348.5,461.5C 346.167,462.167 343.833,462.833 341.5,463.5C 335.839,463.093 330.172,462.76 324.5,462.5C 323.833,462.5 323.167,462.5 322.5,462.5C 319.495,460.723 316.162,459.723 312.5,459.5C 310.597,459.204 308.93,458.537 307.5,457.5 Z"/></g>
<g><path style="opacity:0.278" fill="#f3a873" d="M 362.5,458.5 C 356.067,462.057 349.067,463.724 341.5,463.5C 343.833,462.833 346.167,462.167 348.5,461.5C 352.841,459.314 357.508,458.314 362.5,458.5 Z"/></g>
<g><path style="opacity:0.055" fill="#a3a2a1" d="M 401.5,460.5 C 402.043,460.56 402.376,460.893 402.5,461.5C 392.675,462.823 383.008,462.823 373.5,461.5C 383.015,461.827 392.348,461.494 401.5,460.5 Z"/></g>
<g><path style="opacity:0.248" fill="#e49a6e" d="M 468.5,458.5 C 472.539,461.27 471.873,462.937 466.5,463.5C 448.21,462.68 429.877,462.18 411.5,462C 410.944,461.617 410.611,461.117 410.5,460.5C 430.123,461.642 449.79,461.809 469.5,461C 468.748,460.329 468.414,459.496 468.5,458.5 Z"/></g>
<g><path style="opacity:0.412" fill="#fec79d" d="M 324.5,462.5 C 330.172,462.76 335.839,463.093 341.5,463.5C 335.777,464.696 330.11,464.362 324.5,462.5 Z"/></g>
</svg>
